PathFileType	4	(X/Y/Z)	c:/Users/goper/Files/vsCode/490R/osim_files/A06/A06_SSWS_03.trc
DataRate	CameraRate	NumFrames	NumMarkers	Units                	OrigDataRate	OrigDataStartFrame	OrigNumFrames
120.00	120.00	5	36	mm	120.0	429	1142
                Frame#	Time	LPSIS			LASIS			LTH1			LTH2			LTH3			LTH4			LLFE			LMFE			LSH1			LSH2			LSH3			LSH4			LLMAL			LMMAL			LCAL			LMTP5			LTOE			LMTP1			RPSIS			RASIS			RTH1			RTH2			RTH3			RTH4			RLFE			RMFE			RSH1			RSH2			RSH3			RSH4			RLMAL			RMMAL			RCAL			RMTP1			RTOE			RMTP5		
		X1	Y1	Z1	X2	Y2	Z2	X3	Y3	Z3	X4	Y4	Z4	X5	Y5	Z5	X6	Y6	Z6	X7	Y7	Z7	X8	Y8	Z8	X9	Y9	Z9	X10	Y10	Z10	X11	Y11	Z11	X12	Y12	Z12	X13	Y13	Z13	X14	Y14	Z14	X15	Y15	Z15	X16	Y16	Z16	X17	Y17	Z17	X18	Y18	Z18	X19	Y19	Z19	X20	Y20	Z20	X21	Y21	Z21	X22	Y22	Z22	X23	Y23	Z23	X24	Y24	Z24	X25	Y25	Z25	X26	Y26	Z26	X27	Y27	Z27	X28	Y28	Z28	X29	Y29	Z29	X30	Y30	Z30	X31	Y31	Z31	X32	Y32	Z32	X33	Y33	Z33	X34	Y34	Z34	X35	Y35	Z35	X36	Y36	Z36

429	3.56667	50.67169	998.16516	316.39325	-138.27953	949.37122	388.01852	-164.89398	592.29456	420.46344	-186.45789	555.78204	413.74478	-224.54378	615.56348	410.18484	-235.02545	574.80017	404.80612	-228.86690	494.98328	398.69247	-227.58992	494.15405	285.65573	-136.32747	440.01236	412.54913	-119.07374	397.38858	418.81281	-189.59044	407.94867	402.55960	-165.85855	373.27661	406.24094	20.98850	185.11911	373.85635	-2.27573	184.87331	291.18488	81.34853	211.00897	322.06818	-46.63294	78.93412	390.30545	-92.14414	77.56369	337.09830	-68.93300	82.01262	297.56036	46.94979	1010.85931	184.99359	-129.00021	968.41046	129.87790	3.29549	592.40527	102.87969	-2.38430	549.58093	104.08764	-60.20075	592.47815	107.42313	-56.32568	548.25385	105.57183	-27.21289	435.53635	132.26273	-34.98591	439.92212	221.24332	-4.81213	281.05841	152.84129	-5.26811	233.28264	156.74521	-65.72203	276.58835	159.78964	-57.69429	228.77470	158.17204	-3.27461	99.29833	153.74405	-21.83065	106.18977	235.57237	50.13197	83.51380	206.46756	-153.48161	56.01611	220.72527	-165.48839	66.90681	178.47844	-133.93918	51.46646	133.02235
430	3.57500	42.15620	998.68964	316.15567	-146.60718	949.60962	388.00836	-177.43355	594.43439	421.29800	-199.49524	558.51300	414.57968	-236.61839	618.90448	410.82162	-247.69220	578.26648	405.46219	-243.25539	498.34470	399.20148	-241.27014	497.23724	286.37833	-152.26828	439.19543	412.83661	-136.17323	395.36142	418.30579	-206.95367	409.76382	403.19278	-185.00352	373.89938	406.62784	-7.10898	177.53046	373.34949	-30.80461	178.39465	290.72937	54.37866	200.21922	321.29019	-80.04939	75.10603	390.19781	-125.87145	75.95513	337.19855	-102.48657	79.47547	297.51044	38.22297	1011.27875	184.76804	-137.69228	968.39789	129.89096	-2.50032	593.15497	102.94930	-7.82639	550.22205	104.17336	-65.94904	592.32623	107.48921	-61.72345	548.35040	105.72806	-31.39125	435.91730	132.36270	-39.12062	440.19272	221.38817	-7.31476	281.72092	152.93517	-7.30895	233.94917	156.77521	-67.92750	276.54407	159.89473	-59.65229	228.82443	158.28220	-3.22301	99.76334	153.79277	-21.98108	106.59797	235.42877	49.99621	83.76443	206.52858	-153.68883	55.78920	220.78285	-165.78316	67.06556	178.26926	-134.07248	51.39442	133.07985
431	3.58333	33.50826	999.13226	315.93900	-155.04074	949.77789	388.02032	-189.63205	596.52875	422.30203	-212.24649	560.97784	415.51926	-248.37518	621.88690	411.51758	-259.84760	580.96594	406.42245	-257.12814	501.40454	399.77188	-254.87639	499.98270	287.21292	-167.91626	438.10880	413.16458	-153.80733	393.55786	418.58594	-223.97299	411.32187	403.81854	-203.85147	374.57242	407.22296	-35.78104	169.90848	372.91306	-60.53879	171.93269	290.29053	26.26739	189.19020	320.37418	-114.02287	71.58137	390.29929	-159.75800	74.43997	337.42328	-136.97717	76.40815	298.17157	29.34963	1011.57526	184.57803	-146.32039	968.32520	129.87491	-8.26272	593.84869	103.10672	-13.20916	550.84723	104.32149	-71.88065	592.48163	107.71832	-67.07432	548.38379	105.87873	-35.57431	436.24539	132.48685	-43.34900	440.40244	221.47540	-10.04291	282.36041	153.03549	-9.32467	234.52263	156.83144	-70.45081	276.33786	159.83531	-61.58850	228.83762	158.39012	-3.86413	99.82530	153.99146	-22.18590	106.81219	235.44255	49.30478	83.50266	206.86246	-153.92741	55.67232	220.81343	-166.01137	66.83545	178.32994	-134.20676	51.32700	133.13882
432	3.59167	24.92858	999.42957	315.76538	-163.41479	949.79767	388.03741	-201.44754	598.29187	423.38120	-224.94667	562.84216	417.66190	-259.75018	624.47363	412.19363	-271.50836	582.92896	407.51508	-270.17575	504.08716	400.50070	-267.91180	502.47766	288.24539	-183.09081	436.82367	413.50922	-170.99998	391.92108	418.50882	-240.48117	412.79636	404.61853	-222.05339	374.77631	407.95654	-64.69492	162.30695	372.50067	-89.46928	165.82613	290.14813	-1.96117	178.28864	319.32477	-148.22020	68.46674	390.69043	-194.07391	73.83968	338.17542	-170.11516	73.99989	298.30179	20.47153	1011.77917	184.40996	-155.06714	968.12903	129.93375	-14.18099	594.37677	103.25208	-18.58387	551.35480	104.45762	-77.85407	592.53351	108.09233	-72.41061	548.33014	106.04295	-39.65485	436.56180	132.63670	-47.39539	440.53909	221.73428	-12.37790	282.86090	153.08690	-11.30110	235.13644	156.88568	-72.94725	276.51547	160.10037	-63.56936	228.93379	158.49550	-3.76856	100.25792	154.03561	-22.43168	106.93755	235.52106	49.17240	83.71992	206.94189	-154.11565	55.51172	220.87138	-166.14925	66.72660	178.31885	-134.33070	51.27081	133.20607
433	3.60000	16.33654	999.69098	315.62585	-171.84018	949.61243	388.18457	-213.03525	599.82306	424.31976	-236.74640	564.65173	418.51147	-270.90900	626.74176	412.72729	-283.65524	585.73065	408.63931	-282.61072	506.48309	401.27435	-280.63599	504.55103	289.27667	-198.04407	435.22330	413.85474	-188.22073	389.75824	418.78085	-256.50220	414.18890	405.44611	-240.05083	375.46283	408.55148	-94.01968	155.31758	372.43689	-119.38422	159.80383	289.92529	-31.14182	167.20921	318.43332	-182.36353	65.82420	391.09875	-228.52913	73.29755	338.83710	-204.90729	72.62603	298.95871	11.67739	1011.95551	184.30772	-163.90015	967.83514	130.03566	-20.01779	594.90729	103.41787	-24.00905	551.84814	104.56801	-83.96581	592.00562	108.32612	-77.79813	548.23657	106.24534	-43.88425	436.83899	132.74060	-51.77082	440.62363	221.79280	-14.88960	283.40637	153.15932	-13.28034	235.76213	156.98221	-75.41324	276.17419	160.07144	-65.49274	228.96791	158.57397	-3.95279	100.49414	154.08426	-22.81859	106.89986	235.67671	49.06816	83.95547	206.97467	-154.07629	55.49622	220.50737	-166.34962	66.50570	178.38246	-134.41930	51.20507	133.23036
